<svg viewBox="0 0 720 240" xmlns="http://www.w3.org/2000/svg" role="img" aria-label="Cosmo AM&T — last 60 sessions" style="width:100%;height:auto"><text x="40" y="24" font-size="12" style="fill:var(--muted)">Cosmo AM&T — last 60 sessions</text><text x="40" y="230" font-size="11" style="fill:var(--muted)">2026-07-01</text><text x="680" y="230" font-size="11" style="fill:var(--muted)" text-anchor="end">2026-09-28</text><text x="680" y="50.0" font-size="11" style="fill:var(--muted)" text-anchor="end">46,300</text><text x="680" y="200.0" font-size="11" style="fill:var(--muted)" text-anchor="end">26,600</text><line x1="45.3" y1="85.9" x2="45.3" y2="102.9" style="stroke:var(--up)" stroke-width="1"/><rect x="42.1" y="87.9" width="6.4" height="8.1" style="fill:var(--up)"/><line x1="56.0" y1="92.0" x2="56.0" y2="106.6" style="stroke:var(--down)" stroke-width="1"/><rect x="52.8" y="97.7" width="6.4" height="7.3" style="fill:var(--down)"/><line x1="66.7" y1="97.3" x2="66.7" y2="118.8" style="stroke:var(--up)" stroke-width="1"/><rect x="63.5" y="97.3" width="6.4" height="7.7" style="fill:var(--up)"/><line x1="77.3" y1="91.2" x2="77.3" y2="107.0" style="stroke:var(--up)" stroke-width="1"/><rect x="74.1" y="91.2" width="6.4" height="5.2" style="fill:var(--up)"/><line x1="88.0" y1="84.3" x2="88.0" y2="111.5" style="stroke:var(--down)" stroke-width="1"/><rect x="84.8" y="90.8" width="6.4" height="8.9" style="fill:var(--down)"/><line x1="98.7" y1="101.3" x2="98.7" y2="127.7" style="stroke:var(--down)" stroke-width="1"/><rect x="95.5" y="116.3" width="6.4" height="9.8" style="fill:var(--down)"/><line x1="109.3" y1="111.1" x2="109.3" y2="129.3" style="stroke:var(--up)" stroke-width="1"/><rect x="106.1" y="111.1" width="6.4" height="18.2" style="fill:var(--up)"/><line x1="120.0" y1="90.4" x2="120.0" y2="107.4" style="stroke:var(--up)" stroke-width="1"/><rect x="116.8" y="95.2" width="6.4" height="12.2" style="fill:var(--up)"/><line x1="130.7" y1="77.4" x2="130.7" y2="103.8" style="stroke:var(--down)" stroke-width="1"/><rect x="127.5" y="93.2" width="6.4" height="9.7" style="fill:var(--down)"/><line x1="141.3" y1="100.1" x2="141.3" y2="130.6" style="stroke:var(--down)" stroke-width="1"/><rect x="138.1" y="105.4" width="6.4" height="4.0" style="fill:var(--down)"/><line x1="152.0" y1="93.2" x2="152.0" y2="105.0" style="stroke:var(--up)" stroke-width="1"/><rect x="148.8" y="95.2" width="6.4" height="9.8" style="fill:var(--up)"/><line x1="162.7" y1="92.4" x2="162.7" y2="111.5" style="stroke:var(--down)" stroke-width="1"/><rect x="159.5" y="98.9" width="6.4" height="12.6" style="fill:var(--down)"/><line x1="173.3" y1="110.3" x2="173.3" y2="127.7" style="stroke:var(--down)" stroke-width="1"/><rect x="170.1" y="121.2" width="6.4" height="5.3" style="fill:var(--down)"/><line x1="184.0" y1="123.7" x2="184.0" y2="141.9" style="stroke:var(--up)" stroke-width="1"/><rect x="180.8" y="131.0" width="6.4" height="1" style="fill:var(--up)"/><line x1="194.7" y1="99.3" x2="194.7" y2="127.3" style="stroke:var(--down)" stroke-width="1"/><rect x="191.5" y="123.2" width="6.4" height="2.9" style="fill:var(--down)"/><line x1="205.3" y1="101.3" x2="205.3" y2="125.7" style="stroke:var(--up)" stroke-width="1"/><rect x="202.1" y="101.3" width="6.4" height="24.4" style="fill:var(--up)"/><line x1="216.0" y1="105.4" x2="216.0" y2="133.4" style="stroke:var(--down)" stroke-width="1"/><rect x="212.8" y="107.0" width="6.4" height="25.6" style="fill:var(--down)"/><line x1="226.7" y1="125.3" x2="226.7" y2="136.2" style="stroke:var(--down)" stroke-width="1"/><rect x="223.5" y="127.7" width="6.4" height="3.3" style="fill:var(--down)"/><line x1="237.3" y1="139.1" x2="237.3" y2="165.1" style="stroke:var(--down)" stroke-width="1"/><rect x="234.1" y="142.3" width="6.4" height="19.5" style="fill:var(--down)"/><line x1="248.0" y1="155.3" x2="248.0" y2="196.3" style="stroke:var(--down)" stroke-width="1"/><rect x="244.8" y="159.8" width="6.4" height="27.2" style="fill:var(--down)"/><line x1="258.7" y1="174.4" x2="258.7" y2="200.0" style="stroke:var(--up)" stroke-width="1"/><rect x="255.5" y="188.6" width="6.4" height="11.4" style="fill:var(--up)"/><line x1="269.3" y1="150.5" x2="269.3" y2="178.1" style="stroke:var(--up)" stroke-width="1"/><rect x="266.1" y="152.5" width="6.4" height="25.6" style="fill:var(--up)"/><line x1="280.0" y1="147.2" x2="280.0" y2="167.1" style="stroke:var(--up)" stroke-width="1"/><rect x="276.8" y="153.3" width="6.4" height="6.1" style="fill:var(--up)"/><line x1="290.7" y1="137.5" x2="290.7" y2="150.5" style="stroke:var(--up)" stroke-width="1"/><rect x="287.5" y="137.9" width="6.4" height="12.6" style="fill:var(--up)"/><line x1="301.3" y1="121.6" x2="301.3" y2="134.6" style="stroke:var(--up)" stroke-width="1"/><rect x="298.1" y="123.7" width="6.4" height="5.6" style="fill:var(--up)"/><line x1="312.0" y1="118.0" x2="312.0" y2="135.0" style="stroke:var(--up)" stroke-width="1"/><rect x="308.8" y="124.5" width="6.4" height="2.0" style="fill:var(--up)"/><line x1="322.7" y1="107.0" x2="322.7" y2="129.7" style="stroke:var(--down)" stroke-width="1"/><rect x="319.5" y="115.5" width="6.4" height="3.7" style="fill:var(--down)"/><line x1="333.3" y1="97.3" x2="333.3" y2="120.8" style="stroke:var(--up)" stroke-width="1"/><rect x="330.1" y="97.3" width="6.4" height="21.5" style="fill:var(--up)"/><line x1="344.0" y1="88.3" x2="344.0" y2="106.6" style="stroke:var(--up)" stroke-width="1"/><rect x="340.8" y="97.3" width="6.4" height="4.0" style="fill:var(--up)"/><line x1="354.7" y1="89.1" x2="354.7" y2="103.4" style="stroke:var(--up)" stroke-width="1"/><rect x="351.5" y="93.6" width="6.4" height="3.7" style="fill:var(--up)"/><line x1="365.3" y1="81.0" x2="365.3" y2="96.4" style="stroke:var(--up)" stroke-width="1"/><rect x="362.1" y="86.3" width="6.4" height="6.1" style="fill:var(--up)"/><line x1="376.0" y1="73.3" x2="376.0" y2="89.5" style="stroke:var(--up)" stroke-width="1"/><rect x="372.8" y="73.3" width="6.4" height="10.2" style="fill:var(--up)"/><line x1="386.7" y1="75.3" x2="386.7" y2="102.1" style="stroke:var(--down)" stroke-width="1"/><rect x="383.5" y="75.3" width="6.4" height="24.0" style="fill:var(--down)"/><line x1="397.3" y1="88.7" x2="397.3" y2="111.5" style="stroke:var(--up)" stroke-width="1"/><rect x="394.1" y="100.5" width="6.4" height="6.9" style="fill:var(--up)"/><line x1="408.0" y1="85.1" x2="408.0" y2="93.6" style="stroke:var(--up)" stroke-width="1"/><rect x="404.8" y="89.1" width="6.4" height="1" style="fill:var(--up)"/><line x1="418.7" y1="95.6" x2="418.7" y2="112.3" style="stroke:var(--down)" stroke-width="1"/><rect x="415.5" y="96.9" width="6.4" height="14.6" style="fill:var(--down)"/><line x1="429.3" y1="87.5" x2="429.3" y2="109.0" style="stroke:var(--up)" stroke-width="1"/><rect x="426.1" y="91.6" width="6.4" height="17.4" style="fill:var(--up)"/><line x1="440.0" y1="95.6" x2="440.0" y2="109.0" style="stroke:var(--up)" stroke-width="1"/><rect x="436.8" y="95.6" width="6.4" height="2.1" style="fill:var(--up)"/><line x1="450.7" y1="92.4" x2="450.7" y2="102.5" style="stroke:var(--down)" stroke-width="1"/><rect x="447.5" y="95.6" width="6.4" height="2.5" style="fill:var(--down)"/><line x1="461.3" y1="84.3" x2="461.3" y2="98.9" style="stroke:var(--up)" stroke-width="1"/><rect x="458.1" y="85.1" width="6.4" height="12.2" style="fill:var(--up)"/><line x1="472.0" y1="83.9" x2="472.0" y2="93.2" style="stroke:var(--up)" stroke-width="1"/><rect x="468.8" y="87.9" width="6.4" height="1.2" style="fill:var(--up)"/><line x1="482.7" y1="75.3" x2="482.7" y2="99.3" style="stroke:var(--up)" stroke-width="1"/><rect x="479.5" y="79.4" width="6.4" height="15.0" style="fill:var(--up)"/><line x1="493.3" y1="75.7" x2="493.3" y2="91.6" style="stroke:var(--down)" stroke-width="1"/><rect x="490.1" y="79.8" width="6.4" height="9.7" style="fill:var(--down)"/><line x1="504.0" y1="94.4" x2="504.0" y2="107.0" style="stroke:var(--down)" stroke-width="1"/><rect x="500.8" y="100.9" width="6.4" height="5.3" style="fill:var(--down)"/><line x1="514.7" y1="96.9" x2="514.7" y2="111.5" style="stroke:var(--down)" stroke-width="1"/><rect x="511.5" y="102.5" width="6.4" height="1" style="fill:var(--down)"/><line x1="525.3" y1="96.0" x2="525.3" y2="104.2" style="stroke:var(--up)" stroke-width="1"/><rect x="522.1" y="99.3" width="6.4" height="3.6" style="fill:var(--up)"/><line x1="536.0" y1="96.4" x2="536.0" y2="102.5" style="stroke:var(--down)" stroke-width="1"/><rect x="532.8" y="96.9" width="6.4" height="5.2" style="fill:var(--down)"/><line x1="546.7" y1="94.8" x2="546.7" y2="106.6" style="stroke:var(--down)" stroke-width="1"/><rect x="543.5" y="96.4" width="6.4" height="9.8" style="fill:var(--down)"/><line x1="557.3" y1="78.2" x2="557.3" y2="105.8" style="stroke:var(--up)" stroke-width="1"/><rect x="554.1" y="79.4" width="6.4" height="26.4" style="fill:var(--up)"/><line x1="568.0" y1="79.4" x2="568.0" y2="92.4" style="stroke:var(--down)" stroke-width="1"/><rect x="564.8" y="82.6" width="6.4" height="2.1" style="fill:var(--down)"/><line x1="578.7" y1="84.3" x2="578.7" y2="95.2" style="stroke:var(--up)" stroke-width="1"/><rect x="575.5" y="89.5" width="6.4" height="3.7" style="fill:var(--up)"/><line x1="589.3" y1="84.3" x2="589.3" y2="99.3" style="stroke:var(--down)" stroke-width="1"/><rect x="586.1" y="91.6" width="6.4" height="7.3" style="fill:var(--down)"/><line x1="600.0" y1="76.1" x2="600.0" y2="98.1" style="stroke:var(--up)" stroke-width="1"/><rect x="596.8" y="81.8" width="6.4" height="13.8" style="fill:var(--up)"/><line x1="610.7" y1="62.3" x2="610.7" y2="87.1" style="stroke:var(--up)" stroke-width="1"/><rect x="607.5" y="79.0" width="6.4" height="4.9" style="fill:var(--up)"/><line x1="621.3" y1="80.6" x2="621.3" y2="90.8" style="stroke:var(--down)" stroke-width="1"/><rect x="618.1" y="81.4" width="6.4" height="1.6" style="fill:var(--down)"/><line x1="632.0" y1="71.7" x2="632.0" y2="83.0" style="stroke:var(--up)" stroke-width="1"/><rect x="628.8" y="74.9" width="6.4" height="4.5" style="fill:var(--up)"/><line x1="642.7" y1="74.9" x2="642.7" y2="86.7" style="stroke:var(--down)" stroke-width="1"/><rect x="639.5" y="74.9" width="6.4" height="4.9" style="fill:var(--down)"/><line x1="653.3" y1="79.0" x2="653.3" y2="92.0" style="stroke:var(--down)" stroke-width="1"/><rect x="650.1" y="79.8" width="6.4" height="7.7" style="fill:var(--down)"/><line x1="664.0" y1="68.0" x2="664.0" y2="86.7" style="stroke:var(--up)" stroke-width="1"/><rect x="660.8" y="77.4" width="6.4" height="6.9" style="fill:var(--up)"/><line x1="674.7" y1="40.0" x2="674.7" y2="79.8" style="stroke:var(--up)" stroke-width="1"/><rect x="671.5" y="56.2" width="6.4" height="20.8" style="fill:var(--up)"/></svg>