<svg viewBox="0 0 720 240" xmlns="http://www.w3.org/2000/svg" role="img" aria-label="Cumulative investor flows" style="width:100%;height:auto"><text x="40" y="24" font-size="12" style="fill:var(--muted)">Cumulative net buying —</text><text x="212" y="24" font-size="12" style="fill:var(--series-a)">Foreign</text><text x="268" y="24" font-size="12" style="fill:var(--series-b)">Institutions</text><text x="40" y="230" font-size="11" style="fill:var(--muted)">2026-07-22</text><text x="680" y="230" font-size="11" style="fill:var(--muted)" text-anchor="end">2026-09-02</text><line x1="40" y1="104.8" x2="680" y2="104.8" style="stroke:var(--line)" stroke-width="1" stroke-dasharray="4,3"/><polyline points="40.0,111.4 62.1,117.5 84.1,125.1 106.2,128.5 128.3,128.8 150.3,115.0 172.4,113.9 194.5,127.7 216.6,133.8 238.6,141.2 260.7,148.8 282.8,147.6 304.8,146.3 326.9,146.5 349.0,148.5 371.0,158.0 393.1,163.6 415.2,166.6 437.2,178.1 459.3,177.7 481.4,183.3 503.4,183.8 525.5,182.1 547.6,188.4 569.7,200.0 591.7,197.2 613.8,195.7 635.9,191.3 657.9,191.1 680.0,184.9" fill="none" style="stroke:var(--series-a)" stroke-width="2"/><polyline points="40.0,94.9 62.1,83.4 84.1,87.7 106.2,80.2 128.3,83.1 150.3,68.0 172.4,66.1 194.5,53.2 216.6,51.8 238.6,40.0 260.7,45.0 282.8,52.5 304.8,57.3 326.9,51.1 349.0,52.5 371.0,56.9 393.1,63.5 415.2,72.7 437.2,85.0 459.3,87.6 481.4,87.1 503.4,96.8 525.5,97.7 547.6,96.8 569.7,102.7 591.7,102.4 613.8,102.7 635.9,103.8 657.9,107.2 680.0,109.6" fill="none" style="stroke:var(--series-b)" stroke-width="2"/></svg>