<svg viewBox="0 0 720 240" xmlns="http://www.w3.org/2000/svg" role="img" aria-label="Cumulative investor flows" style="width:100%;height:auto"><text x="40" y="24" font-size="12" style="fill:var(--muted)">Cumulative net buying —</text><text x="212" y="24" font-size="12" style="fill:var(--series-a)">Foreign</text><text x="268" y="24" font-size="12" style="fill:var(--series-b)">Institutions</text><text x="40" y="230" font-size="11" style="fill:var(--muted)">2026-07-27</text><text x="680" y="230" font-size="11" style="fill:var(--muted)" text-anchor="end">2026-09-07</text><line x1="40" y1="122.4" x2="680" y2="122.4" style="stroke:var(--line)" stroke-width="1" stroke-dasharray="4,3"/><polyline points="40.0,122.4 62.1,121.0 84.1,120.0 106.2,119.4 128.3,118.9 150.3,118.9 172.4,120.2 194.5,122.1 216.6,124.3 238.6,125.3 260.7,133.4 282.8,139.9 304.8,144.0 326.9,145.6 349.0,146.9 371.0,150.3 393.1,153.2 415.2,155.6 437.2,160.8 459.3,164.9 481.4,176.3 503.4,182.0 525.5,187.5 547.6,190.1 569.7,191.5 591.7,200.0 613.8,199.1 635.9,199.2 657.9,199.1 680.0,195.7" fill="none" style="stroke:var(--series-a)" stroke-width="2"/><polyline points="40.0,122.9 62.1,123.4 84.1,123.4 106.2,124.1 128.3,125.5 150.3,126.4 172.4,126.6 194.5,127.5 216.6,128.3 238.6,131.1 260.7,120.5 282.8,118.7 304.8,117.2 326.9,114.4 349.0,111.7 371.0,110.2 393.1,107.8 415.2,106.8 437.2,100.6 459.3,83.9 481.4,72.9 503.4,67.8 525.5,53.4 547.6,46.3 569.7,40.0 591.7,45.2 613.8,49.9 635.9,55.6 657.9,62.6 680.0,72.8" fill="none" style="stroke:var(--series-b)" stroke-width="2"/></svg>