<svg viewBox="0 0 720 240" xmlns="http://www.w3.org/2000/svg" role="img" aria-label="Cumulative investor flows" style="width:100%;height:auto"><text x="40" y="24" font-size="12" style="fill:var(--muted)">Cumulative net buying —</text><text x="212" y="24" font-size="12" style="fill:var(--series-a)">Foreign</text><text x="268" y="24" font-size="12" style="fill:var(--series-b)">Institutions</text><text x="40" y="230" font-size="11" style="fill:var(--muted)">2026-08-18</text><text x="680" y="230" font-size="11" style="fill:var(--muted)" text-anchor="end">2026-09-30</text><line x1="40" y1="129.8" x2="680" y2="129.8" style="stroke:var(--line)" stroke-width="1" stroke-dasharray="4,3"/><polyline points="40.0,129.0 62.1,127.8 84.1,130.1 106.2,129.5 128.3,130.1 150.3,132.5 172.4,131.8 194.5,130.3 216.6,130.9 238.6,130.8 260.7,132.2 282.8,130.2 304.8,135.8 326.9,141.3 349.0,144.6 371.0,146.1 393.1,147.9 415.2,184.1 437.2,186.6 459.3,185.8 481.4,185.4 503.4,184.5 525.5,186.6 547.6,188.2 569.7,188.9 591.7,192.0 613.8,193.8 635.9,197.4 657.9,200.0 680.0,197.4" fill="none" style="stroke:var(--series-a)" stroke-width="2"/><polyline points="40.0,127.1 62.1,122.2 84.1,122.3 106.2,123.9 128.3,122.7 150.3,118.7 172.4,119.3 194.5,118.9 216.6,117.6 238.6,118.5 260.7,120.4 282.8,117.7 304.8,111.1 326.9,104.0 349.0,100.9 371.0,100.3 393.1,98.1 415.2,60.2 437.2,57.0 459.3,58.8 481.4,58.5 503.4,58.9 525.5,57.9 547.6,57.9 569.7,53.6 591.7,47.5 613.8,45.3 635.9,41.8 657.9,40.0 680.0,40.9" fill="none" style="stroke:var(--series-b)" stroke-width="2"/></svg>