<svg viewBox="0 0 720 240" xmlns="http://www.w3.org/2000/svg" role="img" aria-label="Nano Materials — last 60 sessions" style="width:100%;height:auto"><text x="40" y="24" font-size="12" style="fill:var(--muted)">Nano Materials — last 60 sessions</text><text x="40" y="230" font-size="11" style="fill:var(--muted)">2026-06-17</text><text x="680" y="230" font-size="11" style="fill:var(--muted)" text-anchor="end">2026-09-10</text><text x="680" y="50.0" font-size="11" style="fill:var(--muted)" text-anchor="end">61,600</text><text x="680" y="200.0" font-size="11" style="fill:var(--muted)" text-anchor="end">33,200</text><line x1="45.3" y1="40.0" x2="45.3" y2="49.0" style="stroke:var(--down)" stroke-width="1"/><rect x="42.1" y="40.0" width="6.4" height="6.2" style="fill:var(--down)"/><line x1="56.0" y1="46.2" x2="56.0" y2="64.8" style="stroke:var(--down)" stroke-width="1"/><rect x="52.8" y="46.2" width="6.4" height="16.3" style="fill:var(--down)"/><line x1="66.7" y1="53.0" x2="66.7" y2="78.9" style="stroke:var(--down)" stroke-width="1"/><rect x="63.5" y="65.9" width="6.4" height="6.2" style="fill:var(--down)"/><line x1="77.3" y1="68.7" x2="77.3" y2="84.5" style="stroke:var(--down)" stroke-width="1"/><rect x="74.1" y="73.2" width="6.4" height="3.4" style="fill:var(--down)"/><line x1="88.0" y1="68.7" x2="88.0" y2="99.7" style="stroke:var(--down)" stroke-width="1"/><rect x="84.8" y="85.1" width="6.4" height="12.9" style="fill:var(--down)"/><line x1="98.7" y1="90.1" x2="98.7" y2="105.4" style="stroke:var(--up)" stroke-width="1"/><rect x="95.5" y="98.6" width="6.4" height="2.2" style="fill:var(--up)"/><line x1="109.3" y1="90.1" x2="109.3" y2="113.8" style="stroke:var(--down)" stroke-width="1"/><rect x="106.1" y="100.8" width="6.4" height="11.0" style="fill:var(--down)"/><line x1="120.0" y1="110.1" x2="120.0" y2="132.7" style="stroke:var(--down)" stroke-width="1"/><rect x="116.8" y="114.4" width="6.4" height="12.9" style="fill:var(--down)"/><line x1="130.7" y1="86.2" x2="130.7" y2="133.0" style="stroke:var(--up)" stroke-width="1"/><rect x="127.5" y="87.3" width="6.4" height="45.7" style="fill:var(--up)"/><line x1="141.3" y1="88.5" x2="141.3" y2="103.1" style="stroke:var(--down)" stroke-width="1"/><rect x="138.1" y="91.8" width="6.4" height="6.8" style="fill:var(--down)"/><line x1="152.0" y1="88.5" x2="152.0" y2="113.0" style="stroke:var(--down)" stroke-width="1"/><rect x="148.8" y="95.8" width="6.4" height="13.5" style="fill:var(--down)"/><line x1="162.7" y1="113.2" x2="162.7" y2="126.2" style="stroke:var(--down)" stroke-width="1"/><rect x="159.5" y="119.2" width="6.4" height="3.9" style="fill:var(--down)"/><line x1="173.3" y1="113.2" x2="173.3" y2="135.2" style="stroke:var(--up)" stroke-width="1"/><rect x="170.1" y="116.1" width="6.4" height="6.4" style="fill:var(--up)"/><line x1="184.0" y1="108.7" x2="184.0" y2="127.3" style="stroke:var(--down)" stroke-width="1"/><rect x="180.8" y="113.8" width="6.4" height="5.6" style="fill:var(--down)"/><line x1="194.7" y1="109.9" x2="194.7" y2="129.3" style="stroke:var(--down)" stroke-width="1"/><rect x="191.5" y="117.7" width="6.4" height="3.7" style="fill:var(--down)"/><line x1="205.3" y1="122.8" x2="205.3" y2="142.8" style="stroke:var(--down)" stroke-width="1"/><rect x="202.1" y="127.0" width="6.4" height="15.5" style="fill:var(--down)"/><line x1="216.0" y1="131.5" x2="216.0" y2="145.9" style="stroke:var(--up)" stroke-width="1"/><rect x="212.8" y="141.4" width="6.4" height="1.1" style="fill:var(--up)"/><line x1="226.7" y1="116.6" x2="226.7" y2="139.2" style="stroke:var(--up)" stroke-width="1"/><rect x="223.5" y="125.4" width="6.4" height="13.8" style="fill:var(--up)"/><line x1="237.3" y1="112.1" x2="237.3" y2="135.2" style="stroke:var(--down)" stroke-width="1"/><rect x="234.1" y="119.4" width="6.4" height="14.1" style="fill:var(--down)"/><line x1="248.0" y1="126.2" x2="248.0" y2="152.7" style="stroke:var(--down)" stroke-width="1"/><rect x="244.8" y="131.8" width="6.4" height="14.1" style="fill:var(--down)"/><line x1="258.7" y1="125.1" x2="258.7" y2="142.8" style="stroke:var(--up)" stroke-width="1"/><rect x="255.5" y="127.0" width="6.4" height="15.8" style="fill:var(--up)"/><line x1="269.3" y1="125.1" x2="269.3" y2="142.5" style="stroke:var(--down)" stroke-width="1"/><rect x="266.1" y="126.8" width="6.4" height="13.2" style="fill:var(--down)"/><line x1="280.0" y1="141.4" x2="280.0" y2="162.3" style="stroke:var(--down)" stroke-width="1"/><rect x="276.8" y="141.4" width="6.4" height="18.9" style="fill:var(--down)"/><line x1="290.7" y1="154.9" x2="290.7" y2="167.3" style="stroke:var(--up)" stroke-width="1"/><rect x="287.5" y="160.0" width="6.4" height="1" style="fill:var(--up)"/><line x1="301.3" y1="148.2" x2="301.3" y2="159.7" style="stroke:var(--down)" stroke-width="1"/><rect x="298.1" y="155.2" width="6.4" height="3.1" style="fill:var(--down)"/><line x1="312.0" y1="134.6" x2="312.0" y2="156.6" style="stroke:var(--up)" stroke-width="1"/><rect x="308.8" y="135.5" width="6.4" height="20.8" style="fill:var(--up)"/><line x1="322.7" y1="141.7" x2="322.7" y2="156.1" style="stroke:var(--down)" stroke-width="1"/><rect x="319.5" y="144.2" width="6.4" height="11.6" style="fill:var(--down)"/><line x1="333.3" y1="144.2" x2="333.3" y2="153.0" style="stroke:var(--down)" stroke-width="1"/><rect x="330.1" y="145.4" width="6.4" height="3.1" style="fill:var(--down)"/><line x1="344.0" y1="153.8" x2="344.0" y2="174.6" style="stroke:var(--down)" stroke-width="1"/><rect x="340.8" y="154.9" width="6.4" height="15.5" style="fill:var(--down)"/><line x1="354.7" y1="163.4" x2="354.7" y2="196.3" style="stroke:var(--down)" stroke-width="1"/><rect x="351.5" y="167.6" width="6.4" height="20.3" style="fill:var(--down)"/><line x1="365.3" y1="176.9" x2="365.3" y2="200.0" style="stroke:var(--up)" stroke-width="1"/><rect x="362.1" y="186.5" width="6.4" height="13.5" style="fill:var(--up)"/><line x1="376.0" y1="157.7" x2="376.0" y2="178.3" style="stroke:var(--up)" stroke-width="1"/><rect x="372.8" y="162.0" width="6.4" height="14.3" style="fill:var(--up)"/><line x1="386.7" y1="150.1" x2="386.7" y2="171.5" style="stroke:var(--up)" stroke-width="1"/><rect x="383.5" y="159.4" width="6.4" height="7.1" style="fill:var(--up)"/><line x1="397.3" y1="138.3" x2="397.3" y2="152.1" style="stroke:var(--up)" stroke-width="1"/><rect x="394.1" y="139.2" width="6.4" height="5.6" style="fill:var(--up)"/><line x1="408.0" y1="133.5" x2="408.0" y2="142.3" style="stroke:var(--down)" stroke-width="1"/><rect x="404.8" y="135.8" width="6.4" height="2.8" style="fill:var(--down)"/><line x1="418.7" y1="126.2" x2="418.7" y2="141.7" style="stroke:var(--up)" stroke-width="1"/><rect x="415.5" y="127.0" width="6.4" height="14.1" style="fill:var(--up)"/><line x1="429.3" y1="112.7" x2="429.3" y2="133.2" style="stroke:var(--up)" stroke-width="1"/><rect x="426.1" y="118.6" width="6.4" height="3.4" style="fill:var(--up)"/><line x1="440.0" y1="95.8" x2="440.0" y2="121.1" style="stroke:var(--up)" stroke-width="1"/><rect x="436.8" y="96.3" width="6.4" height="19.2" style="fill:var(--up)"/><line x1="450.7" y1="94.6" x2="450.7" y2="107.6" style="stroke:var(--down)" stroke-width="1"/><rect x="447.5" y="103.7" width="6.4" height="1.9" style="fill:var(--down)"/><line x1="461.3" y1="98.0" x2="461.3" y2="109.9" style="stroke:var(--up)" stroke-width="1"/><rect x="458.1" y="100.3" width="6.4" height="5.1" style="fill:var(--up)"/><line x1="472.0" y1="96.9" x2="472.0" y2="105.9" style="stroke:var(--up)" stroke-width="1"/><rect x="468.8" y="100.8" width="6.4" height="1.2" style="fill:var(--up)"/><line x1="482.7" y1="93.0" x2="482.7" y2="109.3" style="stroke:var(--up)" stroke-width="1"/><rect x="479.5" y="100.3" width="6.4" height="1" style="fill:var(--up)"/><line x1="493.3" y1="98.0" x2="493.3" y2="118.9" style="stroke:var(--down)" stroke-width="1"/><rect x="490.1" y="100.8" width="6.4" height="15.3" style="fill:var(--down)"/><line x1="504.0" y1="105.6" x2="504.0" y2="129.0" style="stroke:var(--up)" stroke-width="1"/><rect x="500.8" y="113.5" width="6.4" height="15.5" style="fill:var(--up)"/><line x1="514.7" y1="100.8" x2="514.7" y2="112.1" style="stroke:var(--down)" stroke-width="1"/><rect x="511.5" y="104.8" width="6.4" height="5.3" style="fill:var(--down)"/><line x1="525.3" y1="114.4" x2="525.3" y2="125.9" style="stroke:var(--down)" stroke-width="1"/><rect x="522.1" y="116.6" width="6.4" height="8.5" style="fill:var(--down)"/><line x1="536.0" y1="106.8" x2="536.0" y2="121.7" style="stroke:var(--up)" stroke-width="1"/><rect x="532.8" y="109.3" width="6.4" height="12.4" style="fill:var(--up)"/><line x1="546.7" y1="112.7" x2="546.7" y2="125.9" style="stroke:var(--up)" stroke-width="1"/><rect x="543.5" y="115.5" width="6.4" height="1" style="fill:var(--up)"/><line x1="557.3" y1="113.0" x2="557.3" y2="121.4" style="stroke:var(--down)" stroke-width="1"/><rect x="554.1" y="115.2" width="6.4" height="1" style="fill:var(--down)"/><line x1="568.0" y1="99.7" x2="568.0" y2="114.6" style="stroke:var(--up)" stroke-width="1"/><rect x="564.8" y="100.3" width="6.4" height="13.8" style="fill:var(--up)"/><line x1="578.7" y1="102.0" x2="578.7" y2="109.3" style="stroke:var(--up)" stroke-width="1"/><rect x="575.5" y="104.2" width="6.4" height="1" style="fill:var(--up)"/><line x1="589.3" y1="96.9" x2="589.3" y2="111.8" style="stroke:var(--up)" stroke-width="1"/><rect x="586.1" y="99.7" width="6.4" height="10.2" style="fill:var(--up)"/><line x1="600.0" y1="95.2" x2="600.0" y2="107.3" style="stroke:var(--down)" stroke-width="1"/><rect x="596.8" y="99.2" width="6.4" height="8.1" style="fill:var(--down)"/><line x1="610.7" y1="108.2" x2="610.7" y2="124.2" style="stroke:var(--down)" stroke-width="1"/><rect x="607.5" y="114.4" width="6.4" height="9.8" style="fill:var(--down)"/><line x1="621.3" y1="116.9" x2="621.3" y2="127.0" style="stroke:var(--down)" stroke-width="1"/><rect x="618.1" y="119.2" width="6.4" height="3.3" style="fill:var(--down)"/><line x1="632.0" y1="116.6" x2="632.0" y2="123.9" style="stroke:var(--down)" stroke-width="1"/><rect x="628.8" y="118.9" width="6.4" height="3.4" style="fill:var(--down)"/><line x1="642.7" y1="118.3" x2="642.7" y2="123.1" style="stroke:var(--down)" stroke-width="1"/><rect x="639.5" y="119.7" width="6.4" height="1" style="fill:var(--down)"/><line x1="653.3" y1="115.8" x2="653.3" y2="127.0" style="stroke:var(--down)" stroke-width="1"/><rect x="650.1" y="120.0" width="6.4" height="6.5" style="fill:var(--down)"/><line x1="664.0" y1="106.2" x2="664.0" y2="128.5" style="stroke:var(--up)" stroke-width="1"/><rect x="660.8" y="106.5" width="6.4" height="21.4" style="fill:var(--up)"/><line x1="674.7" y1="108.7" x2="674.7" y2="119.7" style="stroke:var(--up)" stroke-width="1"/><rect x="671.5" y="109.3" width="6.4" height="2.0" style="fill:var(--up)"/></svg>