<svg viewBox="0 0 720 240" xmlns="http://www.w3.org/2000/svg" role="img" aria-label="Battery: 20-day vs 60-day return (%)" style="width:100%;height:auto"><line x1="40" y1="188.5" x2="680" y2="188.5" style="stroke:var(--line)" stroke-width="1"/><line x1="40.0" y1="40" x2="40.0" y2="200" style="stroke:var(--line)" stroke-width="1"/><text x="40" y="24" font-size="12" style="fill:var(--muted)">Battery: 20-day vs 60-day return (%)</text><text x="680" y="230" font-size="11" style="fill:var(--muted)" text-anchor="end">60-day return →</text><circle cx="263.7" cy="160.0" r="4" style="fill:var(--series-a)"/><text x="269.7" y="155.0" font-size="10" style="fill:var(--muted)">LG Energy Solution</text><circle cx="382.6" cy="180.8" r="4" style="fill:var(--series-a)"/><text x="388.6" y="175.8" font-size="10" style="fill:var(--muted)">Samsung SDI</text><circle cx="601.1" cy="140.2" r="4" style="fill:var(--series-a)"/><text x="607.1" y="135.2" font-size="10" style="fill:var(--muted)">SK Innovation</text><circle cx="162.9" cy="129.7" r="4" style="fill:var(--series-a)"/><text x="168.9" y="124.69999999999999" font-size="10" style="fill:var(--muted)">EcoPro BM</text><circle cx="207.6" cy="151.5" r="4" style="fill:var(--series-a)"/><text x="213.6" y="146.5" font-size="10" style="fill:var(--muted)">EcoPro</text><circle cx="343.8" cy="175.3" r="4" style="fill:var(--series-a)"/><text x="349.8" y="170.3" font-size="10" style="fill:var(--muted)">POSCO Future M</text><circle cx="305.2" cy="198.7" r="4" style="fill:var(--series-a)"/><text x="311.2" y="193.7" font-size="10" style="fill:var(--muted)">L&F</text><circle cx="321.3" cy="127.7" r="4" style="fill:var(--series-a)"/><text x="327.3" y="122.7" font-size="10" style="fill:var(--muted)">Cosmo AM&T</text><circle cx="252.6" cy="94.9" r="4" style="fill:var(--series-a)"/><text x="258.6" y="89.9" font-size="10" style="fill:var(--muted)">SKC</text><circle cx="680.0" cy="40.0" r="4" style="fill:var(--series-a)"/><text x="686.0" y="35.0" font-size="10" style="fill:var(--muted)">Lotte Energy Materials</text><circle cx="470.1" cy="77.3" r="4" style="fill:var(--series-a)"/><text x="476.1" y="72.3" font-size="10" style="fill:var(--muted)">Nano Materials</text><circle cx="155.1" cy="200.0" r="4" style="fill:var(--series-a)"/><text x="161.1" y="195.0" font-size="10" style="fill:var(--muted)">Chunbo</text></svg>